<svg width="32" height="32" viewBox="0 0 32 32" fill="none" xmlns="http://www.w3.org/2000/svg">
<path fill-rule="evenodd" clip-rule="evenodd" d="M16 32C24.8366 32 32 24.8366 32 16C32 7.16344 24.8366 0 16 0C7.16344 0 0 7.16344 0 16C0 24.8366 7.16344 32 16 32ZM14.8166 7.01327C15.34 6.48985 16.1901 6.48985 16.7135 7.01327L16.7177 7.00909L23.4176 13.709C23.941 14.2324 23.941 15.0824 23.4176 15.6059C22.8942 16.1293 22.0441 16.1293 21.5207 15.6059L17.1071 11.1965V24.0393C17.1071 24.7805 16.5083 25.3793 15.7672 25.3793C15.026 25.3793 14.4272 24.7805 14.4272 24.0393V11.1923L10.0136 15.6101C9.4902 16.1335 8.64015 16.1335 8.11672 15.6101C7.5933 15.0866 7.5933 14.2366 8.11672 13.7132L14.8166 7.01327Z" fill="#A8645A"/>
</svg>
