<svg width="20" height="18" viewBox="0 0 20 18" fill="none" xmlns="http://www.w3.org/2000/svg">
<path d="M2.22222 0C0.996528 0 0 0.996528 0 2.22222V12.2222C0 13.4479 0.996528 14.4444 2.22222 14.4444H8.33333L7.96181 15.5556H5.55556C4.94097 15.5556 4.44444 16.0521 4.44444 16.6667C4.44444 17.2813 4.94097 17.7778 5.55556 17.7778H14.4444C15.059 17.7778 15.5556 17.2813 15.5556 16.6667C15.5556 16.0521 15.059 15.5556 14.4444 15.5556H12.0382L11.6667 14.4444H17.7778C19.0035 14.4444 20 13.4479 20 12.2222V2.22222C20 0.996528 19.0035 0 17.7778 0H2.22222ZM17.7778 2.22222V10H2.22222V2.22222H17.7778Z" fill="#8A8A8A"/>
</svg>
