<svg width="30" height="30" viewBox="0 0 30 30" fill="none" xmlns="http://www.w3.org/2000/svg">
<path d="M15 3.75C8.78906 3.75 3.75 8.78906 3.75 15C3.75 21.2109 8.78906 26.25 15 26.25C16.0371 26.25 16.875 27.0879 16.875 28.125C16.875 29.1621 16.0371 30 15 30C6.71484 30 0 23.2852 0 15C0 6.71484 6.71484 0 15 0C23.2852 0 30 6.71484 30 15V16.875C30 19.9805 27.4805 22.5 24.375 22.5C22.6582 22.5 21.1172 21.7266 20.0859 20.5137C18.75 21.7441 16.9629 22.5 15 22.5C10.8574 22.5 7.5 19.1426 7.5 15C7.5 10.8574 10.8574 7.5 15 7.5C16.6348 7.5 18.1465 8.02148 19.377 8.91211C19.7109 8.61914 20.1445 8.4375 20.625 8.4375C21.6621 8.4375 22.5 9.27539 22.5 10.3125V15V16.875C22.5 17.9121 23.3379 18.75 24.375 18.75C25.4121 18.75 26.25 17.9121 26.25 16.875V15C26.25 8.78906 21.2109 3.75 15 3.75ZM18.75 15C18.75 14.0054 18.3549 13.0516 17.6516 12.3483C16.9484 11.6451 15.9946 11.25 15 11.25C14.0054 11.25 13.0516 11.6451 12.3483 12.3483C11.6451 13.0516 11.25 14.0054 11.25 15C11.25 15.9946 11.6451 16.9484 12.3483 17.6516C13.0516 18.3549 14.0054 18.75 15 18.75C15.9946 18.75 16.9484 18.3549 17.6516 17.6516C18.3549 16.9484 18.75 15.9946 18.75 15Z" fill="#8A8A8A"/>
</svg>
