<svg width="31" height="30" viewBox="0 0 31 30" fill="none" xmlns="http://www.w3.org/2000/svg">
<path d="M10.2914 24.156C10.2914 24.28 10.1487 24.3793 9.96883 24.3793C9.76412 24.3979 9.62144 24.2986 9.62144 24.156C9.62144 24.0319 9.76412 23.9326 9.94402 23.9326C10.1301 23.914 10.2914 24.0133 10.2914 24.156ZM8.36215 23.8768C8.31873 24.0009 8.4428 24.1435 8.6289 24.1808C8.79019 24.2428 8.97629 24.1808 9.01351 24.0567C9.05073 23.9326 8.93286 23.79 8.74676 23.7341C8.58548 23.6907 8.40558 23.7527 8.36215 23.8768ZM11.104 23.7713C10.9241 23.8148 10.8001 23.9326 10.8187 24.0753C10.8373 24.1994 10.9986 24.28 11.1847 24.2366C11.3646 24.1932 11.4887 24.0753 11.47 23.9512C11.4514 23.8334 11.2839 23.7527 11.104 23.7713ZM15.1859 0C6.58178 0 0 6.53216 0 15.1362C0 22.0158 4.32996 27.9028 10.5147 29.9747C11.3088 30.1174 11.5879 29.6273 11.5879 29.2241C11.5879 28.8395 11.5693 26.718 11.5693 25.4152C11.5693 25.4152 7.22694 26.3457 6.31504 23.5666C6.31504 23.5666 5.60785 21.7615 4.5905 21.2962C4.5905 21.2962 3.16993 20.3223 4.68975 20.3409C4.68975 20.3409 6.2344 20.4649 7.08426 21.9414C8.4428 24.3359 10.7194 23.6473 11.6065 23.2379C11.7492 22.2453 12.1524 21.5567 12.5991 21.1473C9.13137 20.7627 5.63267 20.2602 5.63267 14.2926C5.63267 12.5867 6.10412 11.7306 7.09666 10.6388C6.93538 10.2356 6.40809 8.57307 7.25795 6.4267C8.55446 6.02348 11.5383 8.10161 11.5383 8.10161C12.779 7.75422 14.1127 7.57433 15.434 7.57433C16.7553 7.57433 18.0891 7.75422 19.3297 8.10161C19.3297 8.10161 22.3136 6.01728 23.6101 6.4267C24.4599 8.57927 23.9326 10.2356 23.7713 10.6388C24.7639 11.7368 25.3718 12.5929 25.3718 14.2926C25.3718 20.2788 21.718 20.7565 18.2503 21.1473C18.8211 21.6374 19.3049 22.5679 19.3049 24.0257C19.3049 26.1162 19.2863 28.703 19.2863 29.2117C19.2863 29.6149 19.5717 30.105 20.3595 29.9623C26.5629 27.9028 30.7688 22.0158 30.7688 15.1362C30.7688 6.53216 23.79 0 15.1859 0ZM6.02968 21.3955C5.94904 21.4575 5.96765 21.6002 6.07311 21.718C6.17236 21.8173 6.31504 21.8607 6.39568 21.7801C6.47633 21.718 6.45772 21.5753 6.35226 21.4575C6.25301 21.3582 6.11033 21.3148 6.02968 21.3955ZM5.35972 20.893C5.3163 20.9736 5.37833 21.0729 5.5024 21.1349C5.60165 21.1969 5.72572 21.1783 5.76914 21.0915C5.81257 21.0108 5.75053 20.9116 5.62646 20.8496C5.5024 20.8123 5.40314 20.8309 5.35972 20.893ZM7.36961 23.1014C7.27036 23.182 7.30758 23.3681 7.45026 23.486C7.59294 23.6287 7.77283 23.6473 7.85348 23.548C7.93412 23.4674 7.8969 23.2813 7.77283 23.1634C7.63636 23.0207 7.45026 23.0021 7.36961 23.1014ZM6.66243 22.1895C6.56317 22.2515 6.56317 22.4128 6.66243 22.5555C6.76168 22.6982 6.92917 22.7602 7.00982 22.6982C7.10907 22.6175 7.10907 22.4562 7.00982 22.3136C6.92297 22.1709 6.76168 22.1088 6.66243 22.1895Z" fill="#8A8A8A" fill-opacity="0.88"/>
</svg>
