<svg width="23" height="18" viewBox="0 0 23 18" fill="none" xmlns="http://www.w3.org/2000/svg">
<path d="M21.3873 9.39467C23.5376 7.24443 23.5376 3.76217 21.3873 1.61193C19.4844 -0.290942 16.4855 -0.538315 14.2972 1.02584L14.2363 1.06771C13.6883 1.4597 13.5627 2.22085 13.9547 2.76507C14.3467 3.30929 15.1078 3.43868 15.6521 3.04669L15.713 3.00483C16.9346 2.13332 18.6053 2.27032 19.6633 3.33212C20.8621 4.53093 20.8621 6.47186 19.6633 7.67067L15.3933 11.9483C14.1945 13.1471 12.2535 13.1471 11.0547 11.9483C9.99293 10.8865 9.85592 9.2158 10.7274 7.99796L10.7693 7.93707C11.1613 7.38904 11.0319 6.6279 10.4877 6.23971C9.94345 5.85153 9.1785 5.97711 8.79031 6.52134L8.74845 6.58223C7.18048 8.76672 7.42786 11.7656 9.33073 13.6685C11.481 15.8188 14.9632 15.8188 17.1135 13.6685L21.3873 9.39467ZM1.61268 8.50413C-0.537561 10.6544 -0.537561 14.1366 1.61268 16.2869C3.51555 18.1897 6.51448 18.4371 8.70278 16.873L8.76367 16.8311C9.3117 16.4391 9.43729 15.678 9.0453 15.1337C8.65331 14.5895 7.89216 14.4601 7.34794 14.8521L7.28704 14.894C6.0654 15.7655 4.39468 15.6285 3.33668 14.5667C2.13788 13.3641 2.13788 11.4231 3.33668 10.2243L7.60673 5.95047C8.80554 4.75167 10.7465 4.75167 11.9453 5.95047C13.0071 7.01228 13.1441 8.683 12.2726 9.90464L12.2307 9.96553C11.8387 10.5136 11.9681 11.2747 12.5123 11.6629C13.0565 12.0511 13.8215 11.9255 14.2097 11.3813L14.2516 11.3204C15.8195 9.13207 15.5721 6.13315 13.6693 4.23028C11.519 2.08003 8.03678 2.08003 5.88653 4.23028L1.61268 8.50413Z" fill="#8A8A8A"/>
</svg>
