<svg width="30" height="30" viewBox="0 0 30 30" fill="none" xmlns="http://www.w3.org/2000/svg">
<path d="M15 0C6.71371 0 0 6.71371 0 15C0 23.2863 6.71371 30 15 30C23.2863 30 30 23.2863 30 15C30 6.71371 23.2863 0 15 0ZM21.9556 10.2036C21.7319 12.5746 20.752 18.3327 20.256 20.9879C20.0444 22.1129 19.6331 22.4879 19.2339 22.5242C18.3629 22.6028 17.7036 21.9496 16.8569 21.3931C15.5383 20.5282 14.7883 19.9899 13.5121 19.1431C12.0302 18.1694 12.9919 17.631 13.8327 16.754C14.0565 16.5242 17.8911 13.0343 17.9637 12.7198C17.9758 12.6774 17.9819 12.5323 17.8911 12.4536C17.8004 12.375 17.6734 12.4052 17.5827 12.4234C17.4496 12.4516 15.3407 13.8448 11.256 16.6028C10.6593 17.0141 10.1169 17.2137 9.62903 17.2016C9.09073 17.1895 8.0625 16.8992 7.29435 16.6512C6.35685 16.3488 5.60685 16.1855 5.67339 15.6653C5.70565 15.3952 6.07863 15.119 6.79234 14.8367C11.1633 12.9335 14.0786 11.6774 15.5383 11.0685C19.7056 9.33871 20.5706 9.03629 21.1331 9.02419C21.2601 9.02419 21.5323 9.05444 21.7137 9.1996C21.8321 9.30371 21.9076 9.44816 21.9254 9.60484C21.9581 9.80265 21.9683 10.0035 21.9556 10.2036Z" fill="#8A8A8A"/>
</svg>
