<svg width="29" height="30" viewBox="0 0 29 30" fill="none" xmlns="http://www.w3.org/2000/svg">
<path d="M25.2396 2.92125C24.4956 2.23579 21.4842 0.0505185 14.7702 0.0212253C14.7702 0.0212253 6.85522 -0.453325 3.00023 3.08529C0.85597 5.22956 0.100205 8.37564 0.0181842 12.2716C-0.0638368 16.1676 -0.163434 23.4675 6.87279 25.4477H6.87865L6.87279 28.4708C6.87279 28.4708 6.82592 29.6952 7.63441 29.9413C8.60695 30.2459 9.1811 29.3144 10.1126 28.3126C10.6223 27.7619 11.3254 26.9534 11.8585 26.3382C16.6743 26.7425 20.3711 25.8168 20.7929 25.6821C21.7655 25.3657 27.2667 24.6627 28.1572 17.3628C29.0829 9.82859 27.712 5.07137 25.2396 2.92125ZM26.054 16.8121C25.2982 22.9051 20.8398 23.2917 20.0196 23.5554C19.6681 23.6667 16.4165 24.4752 12.333 24.2115C12.333 24.2115 9.28655 27.8849 8.33745 28.8399C8.02694 29.1504 7.68714 29.1211 7.693 28.5059C7.693 28.1017 7.71643 23.4851 7.71643 23.4851C7.71058 23.4851 7.71058 23.4851 7.71643 23.4851C1.75234 21.8329 2.10386 15.6169 2.1683 12.3654C2.23275 9.11383 2.84791 6.44815 4.66408 4.65541C7.92735 1.6968 14.6472 2.13619 14.6472 2.13619C20.3242 2.15963 23.0426 3.87035 23.6754 4.4445C25.7669 6.23724 26.8332 10.5258 26.054 16.8121ZM21.1913 19.2727V19.2844C20.5586 20.3976 19.3751 21.6279 18.1565 21.2354L18.1448 21.2178C16.9086 20.8721 13.9969 19.3723 12.1573 17.9076C11.2082 17.1577 10.3411 16.2731 9.67322 15.4236C9.06978 14.6678 8.46048 13.7715 7.86876 12.6935C6.62087 10.4379 6.34551 9.4302 6.34551 9.4302C5.95299 8.2116 7.17744 7.02816 8.29644 6.39542H8.30816C8.84715 6.11421 9.36271 6.20795 9.70837 6.62391C9.70837 6.62391 10.4348 7.49099 10.7454 7.91867C11.0383 8.31706 11.4308 8.95565 11.6359 9.31303C11.9932 9.95162 11.7706 10.6019 11.4191 10.8714L10.7161 11.4339C10.3587 11.7209 10.4056 12.2541 10.4056 12.2541C10.4056 12.2541 11.4484 16.1969 15.3444 17.1929C15.3444 17.1929 15.8775 17.2398 16.1646 16.8824L16.727 16.1794C16.9965 15.8278 17.6468 15.6052 18.2854 15.9626C19.1466 16.4488 20.2422 17.2046 20.9687 17.8901C21.3788 18.224 21.4725 18.7337 21.1913 19.2727Z" fill="#8A8A8A"/>
<path d="M14.5984 5.17282C17.4945 4.9612 22.5499 5.83959 23.0336 12.4592M15.6375 8.00842C17.0166 7.90765 19.8352 8.53355 20.077 11.8433" stroke="#8A8A8A" stroke-width="1.5" stroke-linecap="round"/>
</svg>
